<svg width="42" height="42" viewBox="0 0 42 42" fill="none" xmlns="http://www.w3.org/2000/svg">
<path d="M42 36.75C42 38.1424 41.4469 39.4777 40.4623 40.4623C39.4777 41.4469 38.1424 42 36.75 42H5.25C3.85761 42 2.52226 41.4469 1.53769 40.4623C0.553124 39.4777 0 38.1424 0 36.75V5.25C0 3.85761 0.553124 2.52226 1.53769 1.53769C2.52226 0.553124 3.85761 0 5.25 0L36.75 0C38.1424 0 39.4777 0.553124 40.4623 1.53769C41.4469 2.52226 42 3.85761 42 5.25V36.75ZM30.1875 19.6875H14.9809L20.6168 14.0543C20.8632 13.8078 21.0017 13.4735 21.0017 13.125C21.0017 12.7765 20.8632 12.4422 20.6168 12.1957C20.3703 11.9493 20.036 11.8108 19.6875 11.8108C19.339 11.8108 19.0047 11.9493 18.7582 12.1957L10.8832 20.0707C10.761 20.1927 10.664 20.3375 10.5979 20.497C10.5317 20.6564 10.4977 20.8274 10.4977 21C10.4977 21.1726 10.5317 21.3436 10.5979 21.503C10.664 21.6625 10.761 21.8073 10.8832 21.9293L18.7582 29.8043C19.0047 30.0507 19.339 30.1892 19.6875 30.1892C20.036 30.1892 20.3703 30.0507 20.6168 29.8043C20.8632 29.5578 21.0017 29.2235 21.0017 28.875C21.0017 28.5265 20.8632 28.1922 20.6168 27.9457L14.9809 22.3125H30.1875C30.5356 22.3125 30.8694 22.1742 31.1156 21.9281C31.3617 21.6819 31.5 21.3481 31.5 21C31.5 20.6519 31.3617 20.3181 31.1156 20.0719C30.8694 19.8258 30.5356 19.6875 30.1875 19.6875Z" fill="black"/>
</svg>
