<svg width="42" height="42" viewBox="0 0 42 42" fill="none" xmlns="http://www.w3.org/2000/svg">
<path d="M0 36.75C0 38.1424 0.553124 39.4777 1.53769 40.4623C2.52226 41.4469 3.85761 42 5.25 42H36.75C38.1424 42 39.4777 41.4469 40.4623 40.4623C41.4469 39.4777 42 38.1424 42 36.75V5.25C42 3.85761 41.4469 2.52226 40.4623 1.53769C39.4777 0.553124 38.1424 0 36.75 0L5.25 0C3.85761 0 2.52226 0.553124 1.53769 1.53769C0.553124 2.52226 0 3.85761 0 5.25L0 36.75ZM11.8125 19.6875H27.0191L21.3832 14.0543C21.1368 13.8078 20.9983 13.4735 20.9983 13.125C20.9983 12.7765 21.1368 12.4422 21.3832 12.1957C21.6297 11.9493 21.964 11.8108 22.3125 11.8108C22.661 11.8108 22.9953 11.9493 23.2418 12.1957L31.1168 20.0707C31.239 20.1927 31.336 20.3375 31.4021 20.497C31.4683 20.6564 31.5023 20.8274 31.5023 21C31.5023 21.1726 31.4683 21.3436 31.4021 21.503C31.336 21.6625 31.239 21.8073 31.1168 21.9293L23.2418 29.8043C22.9953 30.0507 22.661 30.1892 22.3125 30.1892C21.964 30.1892 21.6297 30.0507 21.3832 29.8043C21.1368 29.5578 20.9983 29.2235 20.9983 28.875C20.9983 28.5265 21.1368 28.1922 21.3832 27.9457L27.0191 22.3125H11.8125C11.4644 22.3125 11.1306 22.1742 10.8844 21.9281C10.6383 21.6819 10.5 21.3481 10.5 21C10.5 20.6519 10.6383 20.3181 10.8844 20.0719C11.1306 19.8258 11.4644 19.6875 11.8125 19.6875V19.6875Z" fill="black"/>
</svg>
